<svg width="155" height="154" viewBox="0 0 155 154" fill="none" xmlns="http://www.w3.org/2000/svg">
<path d="M130.802 44.3446C138.168 51.8601 131.185 76.7817 131.749 85.0736C132.615 97.7908 135.618 107.049 134.235 116.299C131.504 134.532 110.883 150.099 86.876 141.844C78.3606 138.9 66.9556 128.807 59.2318 123.91C51.2554 118.847 44.5162 111.758 37.2273 105.799C32.0807 101.588 22.4091 95.3806 22.0248 87.7166C21.864 84.4917 26.1546 82.3219 28.6093 82.2514C36.2718 82.0202 60.9928 97.3544 60.8703 97.3161C56.6455 96.0329 28.3383 71.3457 22.1672 60.1489C19.8948 56.0283 17.408 52.3915 20.9835 47.9492C24.1609 43.9939 32.416 47.0764 35.4419 49.3687C44.262 56.0757 65.3784 78.1415 65.7061 77.9608C65.8286 77.8903 38.2701 47.2433 39.535 35.1768C40.146 29.3319 43.9573 26.5328 49.7838 30.439C57.062 35.3085 79.8474 69.5112 81.0036 65.8116C82.054 62.4688 55.7681 23.5161 62.6328 15.8153C67.3017 10.6044 74.5722 14.2228 78.0574 19.495C85.858 31.2893 92.3269 43.9122 97.3454 57.1323C99.7127 63.4642 104.349 69.2187 106.487 68.5832C115.3 65.9448 120.002 36.6346 130.801 44.3431L130.802 44.3446Z" fill="#090BDB"/>
<path d="M116.627 22.5593C121.581 19.6131 129.861 23.9083 133.923 27.0612" stroke="#292524" stroke-width="0.612512" stroke-linecap="round" stroke-linejoin="round"/>
<path d="M109.173 11.4527C123.726 3.37213 136.087 8.9613 145.498 21.697" stroke="#292524" stroke-width="0.612512" stroke-linecap="round" stroke-linejoin="round"/>
<path d="M24.4412 118.776C23.6066 122.991 25.3262 128.172 28.4286 131.274" stroke="#292524" stroke-width="0.612512" stroke-linecap="round" stroke-linejoin="round"/>
<path d="M12.0562 113.363C6.40115 122.72 10.361 135.332 21.7185 143" stroke="#292524" stroke-width="0.612512" stroke-linecap="round" stroke-linejoin="round"/>
</svg>
