<svg width="111" height="111" viewBox="0 0 111 111" fill="none" xmlns="http://www.w3.org/2000/svg">
<path d="M19.0327 77.87C21.9338 65.6969 25.6727 54.153 30.0924 42.4246C32.9748 34.7777 35.8725 27.1363 40.626 20.4161C41.812 18.7394 43.6798 16.3281 46.0362 16.5707C48.587 16.8321 50.7601 19.2763 52.2765 21.1024C56.1592 25.7802 58.788 31.713 61.3091 37.189C69.0285 53.952 72.5752 72.495 77.9063 90.0782C78.1413 90.8512 79.6369 93.6118 78.1303 93.749C73.603 94.1608 68.9132 92.64 64.6132 91.4508C56.5973 89.2349 48.8494 86.7192 41.4551 82.8486C34.0168 78.9548 26.3974 75.272 19.4642 70.5119C15.4409 67.7502 11.3726 64.9996 7.44704 62.1018C1.34841 57.6009 4.18141 52.9253 10.4469 49.9726C14.8348 47.905 19.5861 46.7169 24.2836 45.5837C32.3609 43.6357 40.4471 41.578 48.6057 39.9979C56.1784 38.5357 63.8153 37.428 71.4914 36.6784C76.7446 36.1612 82.1811 35.6792 87.4188 36.551C89.1779 36.8442 91.6266 37.3043 93.0519 38.4825C94.1829 39.4159 93.4307 42.0205 93.0365 43.1109C92.3085 45.117 90.8975 46.6356 89.4458 48.1531C87.0562 50.6418 84.6136 53.0789 82.1196 55.4629C75.1831 62.1128 67.1387 67.5174 59.2349 72.9386C53.4152 76.93 47.6108 80.8194 41.488 84.3332C37.2473 86.7665 33.5216 89.7729 29.4544 92.4401C27.625 93.6403 25.3696 94.8361 23.7412 96.2065C22.5849 97.1805 16.416 101.968 14.4044 100.532C12.3949 99.0955 16.0866 90.2319 19.0327 77.87Z" stroke="#090BDB" stroke-width="2" stroke-linecap="round"/>
<path d="M9.37304 20.379C13.012 19.8167 16.6696 19.1261 20.3536 19.0064" stroke="#090BDB" stroke-width="2" stroke-linecap="round"/>
<path d="M90.6295 75.6948C95.8157 75.1304 101.028 74.4409 106.277 74.3223" stroke="#090BDB" stroke-width="2" stroke-linecap="round"/>
<path d="M14.0398 13.2415C14.2133 17.6338 14.4516 22.0227 14.4516 26.4183" stroke="#090BDB" stroke-width="2" stroke-linecap="round"/>
<path d="M97.9042 68.5574C98.0777 72.9497 98.316 77.3375 98.316 81.7342" stroke="#090BDB" stroke-width="2" stroke-linecap="round"/>
<path d="M79.6489 14.4922C81.5618 11.265 83.5361 10.1274 88.586 11.0454C93.6371 11.9634 92.9849 19.2292 88.586 21.6746C85.7816 23.2339 80.9007 22.0732 79.5117 19.0525C78.9297 17.7864 78.9253 15.7122 79.6489 14.4922Z" stroke="#090BDB" stroke-width="2" stroke-linecap="round"/>
</svg>
