<svg width="9" height="8" viewBox="0 0 9 8" fill="none" xmlns="http://www.w3.org/2000/svg">
<path d="M4.30979 0.585411C4.36966 0.401148 4.63034 0.401148 4.69021 0.58541L5.46541 2.97123C5.49219 3.05363 5.56898 3.10942 5.65562 3.10942H8.16422C8.35796 3.10942 8.43852 3.35735 8.28177 3.47123L6.25228 4.94574C6.18218 4.99667 6.15285 5.08694 6.17962 5.16935L6.95482 7.55517C7.01469 7.73943 6.8038 7.89265 6.64705 7.77877L4.61756 6.30426C4.54746 6.25333 4.45254 6.25333 4.38244 6.30426L2.35295 7.77877C2.1962 7.89265 1.98531 7.73943 2.04518 7.55517L2.82038 5.16935C2.84715 5.08694 2.81782 4.99667 2.74772 4.94574L0.718226 3.47123C0.561483 3.35735 0.642038 3.10942 0.835783 3.10942H3.34438C3.43102 3.10942 3.50781 3.05363 3.53459 2.97123L4.30979 0.585411Z" fill="#090BDB"/>
</svg>
